<svg width="214" height="100" viewBox="0 0 214 100" fill="none" xmlns="http://www.w3.org/2000/svg">
<path d="M19.8501 37.15C19.4001 38.11 18.6801 38.755 17.6901 39.085C16.7301 39.415 15.7851 39.37 14.8551 38.95C13.8951 38.5 13.2351 37.795 12.8751 36.835C12.5451 35.845 12.6051 34.87 13.0551 33.91C13.3851 33.22 13.5351 32.605 13.5051 32.065C13.5051 31.525 13.4301 31.075 13.2801 30.715C13.1301 30.295 12.8901 29.92 12.5601 29.59C13.1901 29.59 13.8351 29.665 14.4951 29.815C15.0651 29.965 15.6801 30.19 16.3401 30.49C17.0301 30.79 17.7051 31.225 18.3651 31.795C20.2851 33.475 20.7801 35.26 19.8501 37.15ZM0.0500946 38.95C0.0500946 38.05 0.155095 37.24 0.365095 36.52C0.575095 35.77 0.860095 35.11 1.22009 34.54C1.58009 33.94 1.98509 33.415 2.43509 32.965C2.88509 32.485 3.35009 32.065 3.83009 31.705C4.94009 30.895 6.20009 30.265 7.6101 29.815V61.18H0.0500946V38.95ZM10.3551 47.77C11.0451 47.44 11.7801 47.005 12.5601 46.465C13.1901 46.015 13.8951 45.445 14.6751 44.755C15.4551 44.035 16.1901 43.15 16.8801 42.1V47.77V53.44C16.1301 52.39 15.3651 51.505 14.5851 50.785C13.8351 50.065 13.1451 49.48 12.5151 49.03C11.7651 48.49 11.0451 48.07 10.3551 47.77ZM33.3655 29.14C33.3655 28.57 33.2455 28.03 33.0055 27.52C32.7955 26.98 32.4955 26.515 32.1055 26.125C31.7155 25.735 31.2505 25.435 30.7105 25.225C30.2005 24.985 29.6605 24.865 29.0905 24.865C28.4905 24.865 27.9205 24.985 27.3805 25.225C26.8705 25.435 26.4205 25.735 26.0305 26.125C25.6705 26.515 25.3705 26.98 25.1305 27.52C24.9205 28.03 24.8155 28.57 24.8155 29.14C24.8155 29.74 24.9205 30.295 25.1305 30.805C25.3705 31.315 25.6705 31.765 26.0305 32.155C26.4205 32.545 26.8705 32.86 27.3805 33.1C27.9205 33.31 28.4905 33.415 29.0905 33.415C29.6605 33.415 30.2005 33.31 30.7105 33.1C31.2505 32.86 31.7155 32.545 32.1055 32.155C32.4955 31.765 32.7955 31.315 33.0055 30.805C33.2455 30.295 33.3655 29.74 33.3655 29.14ZM22.9705 41.785C24.3505 41.185 25.6405 40.57 26.8405 39.94C28.0405 39.28 29.0755 38.68 29.9455 38.14C30.9655 37.54 31.8955 36.94 32.7355 36.34V61H24.8605V47.32C24.8605 46.18 24.7705 45.25 24.5905 44.53C24.3805 43.81 24.1555 43.24 23.9155 42.82C23.6155 42.34 23.3005 41.995 22.9705 41.785ZM56.3004 36.88V46.645H56.1204C55.9104 46.345 55.5654 45.85 55.0854 45.16C54.6354 44.44 54.0204 43.63 53.2404 42.73C52.4904 41.83 51.5604 40.885 50.4504 39.895C49.3704 38.905 48.0954 37.975 46.6254 37.105V36.88H56.3004ZM36.9954 35.305C38.1354 34.705 39.3054 34.015 40.5054 33.235C41.5254 32.545 42.6504 31.72 43.8804 30.76C45.1104 29.77 46.3254 28.645 47.5254 27.385V42.37V49.75C47.5254 50.8 47.6604 51.76 47.9304 52.63C48.2304 53.47 48.6204 54.25 49.1004 54.97C49.5804 55.66 50.1204 56.275 50.7204 56.815C51.3204 57.355 51.9354 57.82 52.5654 58.21C54.0354 59.17 55.7154 59.905 57.6054 60.415C56.4054 60.625 55.2054 60.79 54.0054 60.91C52.9554 61 51.8154 61.03 50.5854 61C49.3854 60.97 48.2454 60.82 47.1654 60.55C46.1154 60.28 45.1254 59.785 44.1954 59.065C43.2954 58.345 42.5004 57.475 41.8104 56.455C41.1504 55.405 40.6254 54.25 40.2354 52.99C39.8454 51.73 39.6504 50.44 39.6504 49.12V41.965C39.6504 40.435 39.5154 39.235 39.2454 38.365C38.9454 37.495 38.6304 36.835 38.3004 36.385C37.9104 35.845 37.4754 35.485 36.9954 35.305ZM96.5142 45.025C96.0942 44.065 95.5992 43.12 95.0292 42.19C94.5192 41.41 93.8892 40.585 93.1392 39.715C92.3892 38.815 91.5042 38.02 90.4842 37.33H96.5142H101.959C101.179 38.29 100.459 39.235 99.7992 40.165C99.1692 41.095 98.5992 41.92 98.0892 42.64C97.5192 43.48 96.9942 44.275 96.5142 45.025ZM77.4792 53.305L72.2142 61L60.0642 37.285H69.0192L77.4792 53.305ZM92.5092 53.305L87.2442 61L75.0942 37.285H84.0492L92.5092 53.305ZM104.141 44.305C104.351 44.785 104.636 45.19 104.996 45.52C105.356 45.85 105.761 46.105 106.211 46.285C106.661 46.435 107.126 46.51 107.606 46.51C108.116 46.51 108.596 46.405 109.046 46.195C109.526 45.985 109.931 45.7 110.261 45.34C110.591 44.98 110.846 44.575 111.026 44.125C111.206 43.675 111.281 43.21 111.251 42.73C111.251 42.22 111.146 41.74 110.936 41.29C110.606 40.6 110.456 40 110.486 39.49C110.516 38.95 110.606 38.5 110.756 38.14C110.936 37.72 111.191 37.36 111.521 37.06C110.921 37.06 110.291 37.12 109.631 37.24C109.061 37.36 108.431 37.57 107.741 37.87C107.081 38.14 106.421 38.545 105.761 39.085C103.871 40.675 103.331 42.415 104.141 44.305ZM109.991 60.91H109.496C107.906 60.91 106.586 60.73 105.536 60.37C104.516 59.98 103.706 59.5 103.106 58.93C102.506 58.33 102.086 57.685 101.846 56.995C101.636 56.305 101.531 55.63 101.531 54.97C101.531 54.34 101.651 53.68 101.891 52.99C102.161 52.3 102.596 51.67 103.196 51.1C103.796 50.5 104.606 50.005 105.626 49.615C106.676 49.225 107.966 49.03 109.496 49.03H113.456C112.226 49.45 111.221 50.2 110.441 51.28C109.661 52.36 109.271 53.59 109.271 54.97C109.271 56.35 109.661 57.58 110.441 58.66C111.221 59.74 112.226 60.49 113.456 60.91H109.991ZM118.946 37.42C119.996 37.69 120.986 38.17 121.916 38.86C122.876 39.52 123.716 40.33 124.436 41.29C125.156 42.25 125.726 43.33 126.146 44.53C126.566 45.73 126.776 46.99 126.776 48.31V61H118.541V47.68V37.33L118.946 37.42ZM130.688 31.66C132.068 31.06 133.358 30.445 134.558 29.815C135.758 29.155 136.793 28.555 137.663 28.015C138.683 27.415 139.613 26.815 140.453 26.215V61H132.578V37.195C132.578 36.055 132.488 35.125 132.308 34.405C132.098 33.685 131.873 33.115 131.633 32.695C131.333 32.215 131.018 31.87 130.688 31.66ZM145.039 31.66C146.419 31.06 147.709 30.445 148.909 29.815C150.109 29.155 151.144 28.555 152.014 28.015C153.034 27.415 153.964 26.815 154.804 26.215V61H146.929V37.195C146.929 36.055 146.839 35.125 146.659 34.405C146.449 33.685 146.224 33.115 145.984 32.695C145.684 32.215 145.369 31.87 145.039 31.66ZM179.638 58.255C180.688 58.255 181.633 58.15 182.473 57.94C181.243 59.08 179.803 59.995 178.153 60.685C176.533 61.345 174.778 61.675 172.888 61.675C171.028 61.675 169.273 61.36 167.623 60.73C166.003 60.07 164.578 59.185 163.348 58.075C162.148 56.935 161.188 55.615 160.468 54.115C159.778 52.585 159.433 50.965 159.433 49.255C159.433 47.605 159.733 46.06 160.333 44.62C160.933 43.18 161.743 41.92 162.763 40.84C163.813 39.73 165.043 38.845 166.453 38.185C167.863 37.495 169.363 37.105 170.953 37.015C169.843 38.275 169.033 39.685 168.523 41.245C168.013 42.805 167.758 44.56 167.758 46.51C167.758 48.25 168.058 49.84 168.658 51.28C169.288 52.72 170.143 53.965 171.223 55.015C172.303 56.035 173.563 56.83 175.003 57.4C176.443 57.97 177.988 58.255 179.638 58.255ZM177.343 49.795C177.433 49.315 177.508 48.835 177.568 48.355C177.628 47.875 177.658 47.38 177.658 46.87C177.658 44.86 177.403 43.045 176.893 41.425C176.383 39.775 175.573 38.305 174.463 37.015C176.053 37.105 177.553 37.51 178.963 38.23C180.373 38.92 181.588 39.835 182.608 40.975C183.658 42.115 184.483 43.435 185.083 44.935C185.683 46.405 185.983 47.995 185.983 49.705V49.795H177.343ZM207.09 36.88V46.645H206.91C206.7 46.345 206.355 45.85 205.875 45.16C205.425 44.44 204.81 43.63 204.03 42.73C203.28 41.83 202.35 40.885 201.24 39.895C200.16 38.905 198.885 37.975 197.415 37.105V36.88H207.09ZM187.785 35.305C188.925 34.705 190.095 34.015 191.295 33.235C192.315 32.545 193.44 31.72 194.67 30.76C195.9 29.77 197.115 28.645 198.315 27.385V42.37V49.75C198.315 50.8 198.45 51.76 198.72 52.63C199.02 53.47 199.41 54.25 199.89 54.97C200.37 55.66 200.91 56.275 201.51 56.815C202.11 57.355 202.725 57.82 203.355 58.21C204.825 59.17 206.505 59.905 208.395 60.415C207.195 60.625 205.995 60.79 204.795 60.91C203.745 61 202.605 61.03 201.375 61C200.175 60.97 199.035 60.82 197.955 60.55C196.905 60.28 195.915 59.785 194.985 59.065C194.085 58.345 193.29 57.475 192.6 56.455C191.94 55.405 191.415 54.25 191.025 52.99C190.635 51.73 190.44 50.44 190.44 49.12V41.965C190.44 40.435 190.305 39.235 190.035 38.365C189.735 37.495 189.42 36.835 189.09 36.385C188.7 35.845 188.265 35.485 187.785 35.305Z" fill="#ED9842"/>
</svg>
