<svg width="752" height="384" viewBox="0 0 752 384" fill="none" xmlns="http://www.w3.org/2000/svg">
<g clip-path="url(#clip0_111_831)">
<path d="M76.3262 228.753C72.3861 186.871 122.037 142.911 147.301 115.069C166.656 93.7552 183.055 67.0061 208.479 52.8322C231.295 40.1237 253.418 40.4967 278.735 40.47C296.2 40.47 311.933 43.3208 329.185 44.9726C352.772 47.2372 362.995 40.7098 383.308 29.7597C428.273 5.48826 502.123 -7.96626 552.493 5.08862C601.478 17.7971 645.83 73.2138 663.561 118.533C686.536 177.28 674.343 247.883 629.75 292.323C592.213 329.756 555.767 347.713 504.785 356.665C446.722 366.895 376.626 371.105 319.947 353.654C273.491 339.347 228.26 317.74 183.694 299.41C151.774 286.275 101.671 273.087 76.3794 250.067" fill="#724B3C" fill-opacity="0.4"/>
<path d="M342.975 375.954C342.576 375.048 342.176 374.116 341.857 373.156C341.484 372.037 341.085 370.998 340.632 370.013C340.366 369.773 340.206 369.426 340.18 369.053C339.541 367.881 338.742 366.842 337.571 365.856C335.84 364.418 335.175 363.965 334.11 364.418C332.512 365.137 332.885 367.029 333.045 367.588C333.098 367.828 333.098 368.068 333.045 368.307C337.864 378.991 345.504 390.208 344.306 379.79C344.067 378.858 343.8 377.925 343.454 377.073L342.948 375.901L342.975 375.954Z" fill="#FDF0E2"/>
<path d="M314.942 247.803C307.487 247.483 300.06 247.19 292.659 246.471C286.669 245.885 280.2 245.991 273.517 246.151C271.547 246.205 269.205 246.764 266.915 247.297C266.542 247.377 266.17 247.457 265.797 247.563C264.333 273.327 267.661 305.324 274.023 325.493C275.86 331.354 288.053 370.146 291.541 358.636C291.381 357.731 291.274 356.825 291.141 355.945C290.982 354.826 290.849 353.681 290.636 352.615C290.476 351.843 290.21 351.07 289.97 350.324C289.704 349.551 289.464 348.779 289.278 347.979C289.225 347.899 289.145 347.873 289.118 347.793C288.958 347.66 287.947 347.367 287.095 347.393C286.296 347.473 285.551 346.807 285.524 345.954C285.471 345.129 286.11 344.409 286.962 344.383C287.973 344.303 290.689 344.596 291.7 346.274C291.913 346.487 292.1 346.727 292.153 347.047C292.313 347.819 292.579 348.565 292.819 349.338C293.111 350.217 293.404 351.096 293.591 352.002C293.804 353.121 293.99 354.32 294.15 355.519C294.203 355.866 294.256 356.185 294.283 356.532C295.907 357.864 298.063 358.53 299.314 357.81C299.261 357.224 299.235 356.638 299.181 356.025C299.101 354.693 299.022 353.388 298.862 352.136C298.782 351.549 298.675 350.963 298.569 350.351C298.409 349.391 298.223 348.379 298.143 347.34C298.037 347.153 297.957 346.967 297.957 346.727C297.903 346.114 297.957 345.502 298.143 344.862C298.143 344.835 298.143 344.809 298.143 344.782C298.143 344.569 298.25 344.356 298.356 344.196C298.888 342.864 299.927 341.692 301.471 341.319C302.269 341.106 303.095 341.585 303.308 342.411C303.521 343.21 303.015 344.036 302.216 344.249C301.684 344.383 301.338 344.889 301.125 345.475C301.018 346.834 301.284 348.352 301.551 349.844C301.657 350.51 301.79 351.123 301.87 351.763C302.057 353.095 302.136 354.48 302.216 355.892C302.216 355.919 302.216 355.945 302.216 355.999C303.76 356.905 305.651 357.038 306.236 355.04C318.136 344.329 315.341 326.559 314.995 312.198C314.063 290.245 323.514 269.65 327.108 248.363C324.446 248.363 321.784 248.256 319.201 248.096C317.817 248.016 316.406 247.936 314.968 247.883L314.942 247.803Z" fill="#FDF0E2"/>
<path d="M349.497 368.148C349.364 367.855 349.258 367.508 349.151 367.189C348.672 365.883 348.193 364.551 347.288 364.045C345.85 363.272 345.238 363.645 345.025 363.778C343.96 364.418 343.321 366.496 343.215 368.334C343.827 369.56 344.28 370.865 344.732 372.197C345.025 373.05 345.398 373.902 345.744 374.728L346.276 375.927C346.276 375.927 346.329 376.141 346.383 376.22C349.817 381.203 353.278 383.6 353.278 378.245C353.118 377.819 352.985 377.419 352.825 376.993C351.76 374.009 350.695 371.025 349.524 368.094L349.497 368.148Z" fill="#FDF0E2"/>
<path d="M355.754 360.634C354.183 360.901 351.84 363.059 351.574 364.471C351.574 364.577 351.494 364.684 351.441 364.791C351.654 365.27 351.814 365.75 351.973 366.176L352.293 367.055C353.304 369.613 354.236 372.251 355.195 374.862C357.884 378.591 361.344 381.895 362.729 377.899C361.078 372.703 359.854 367.402 358.975 362.02C358.735 361.833 358.522 361.647 358.283 361.487C357.191 360.714 356.579 360.501 355.754 360.661V360.634Z" fill="#FDF0E2"/>
<path d="M559.813 345.848L560.319 345.475L559.813 345.821V345.848Z" fill="#FDF0E2"/>
<path d="M562.529 362.819C563.061 361.647 563.647 360.475 564.233 359.329C565.271 357.331 566.229 355.412 566.842 353.388C567.853 349.977 568.093 348.352 566.256 347.42C565.351 346.967 563.274 347.047 560.026 347.686C559.973 347.686 559.893 347.686 559.84 347.713C559.787 349.338 559.467 350.936 559.201 352.375L559.068 353.041C558.296 357.064 556.991 360.954 555.74 364.711C555.74 364.711 555.74 364.737 555.74 364.764C556.432 366.496 558.376 367.188 560.612 366.442C560.798 366.096 560.985 365.723 561.198 365.35C561.677 364.551 562.13 363.725 562.529 362.846V362.819Z" fill="#FDF0E2"/>
<path d="M245.245 181.623C248.599 178.505 251.634 174.509 254.589 170.619C255.414 169.527 256.24 168.435 257.065 167.395C261.697 161.481 264.546 156.659 266.329 151.783C266.809 150.504 267.288 149.225 267.767 147.973C269.923 142.405 271.947 137.156 271.893 131.082C271.84 125.14 271.361 117.627 268.007 112.032C262.23 102.441 253.205 99.2437 244.313 97.2455C236.086 95.3805 226.742 97.0323 221.897 98.178C220.06 98.6309 218.116 99.2703 216.067 99.9897C212.686 101.162 209.171 102.361 205.844 102.574C205.018 102.627 204.299 102.015 204.246 101.162C204.246 101.162 204.246 101.109 204.246 101.082C203.341 100.229 202.436 99.3503 201.557 98.4977C198.549 95.5137 195.727 92.6896 192 90.6914C186.596 87.814 179.86 86.1622 173.072 86.1089C166.389 86.0289 162.077 86.2154 158.163 90.6648C153.025 96.4728 151.907 104.519 151.907 110.247C151.907 110.38 151.854 110.514 151.827 110.647C151.827 110.78 151.854 110.886 151.827 111.02C150.789 116.721 147.967 121.544 145.225 126.206C144.319 127.751 143.388 129.323 142.536 130.922C136.386 142.351 136.146 155.22 141.923 165.317C144.719 170.246 150.096 174.243 154.835 177.786L156.193 178.799C161.677 182.928 168.146 185.939 176.586 188.203C181.032 189.402 185.398 190.948 189.631 192.44C191.574 193.132 193.517 193.798 195.461 194.464C199.8 195.903 203.421 195.876 208.027 195.797H209.198C223.201 195.583 235.341 190.841 245.245 181.623Z" fill="#FDF0E2"/>
<path d="M495.255 242.581C493.923 242.634 492.566 242.608 491.181 242.608C489.052 242.608 486.922 242.608 484.925 242.794C484.739 265.014 476.619 287.287 472.705 308.868C470.815 316.008 467.328 331.381 468.419 333.672C469.324 335.537 470.895 334.791 472.492 333.273C473.078 331.621 473.77 330.075 474.489 328.557C476.007 325.386 477.418 322.402 477.072 318.699C476.992 317.873 477.604 317.127 478.429 317.047C479.095 316.994 479.681 317.394 479.92 317.953C480.186 317.74 480.426 317.553 480.612 317.42C481.331 316.994 482.263 317.26 482.662 317.98C483.088 318.699 482.822 319.632 482.103 320.031C481.517 320.378 480.133 322.056 479.973 322.615C479.92 322.775 479.84 322.935 479.76 323.095C479.228 325.546 478.19 327.731 477.178 329.862C476.646 330.981 476.14 332.047 475.687 333.139C476.326 335.377 478.829 336.123 481.544 334.791C482.29 333.512 483.008 332.313 483.541 331.061L484.233 329.463C485.378 326.878 486.549 324.187 487.401 321.497C487.667 320.697 488.492 320.271 489.291 320.537C490.09 320.804 490.516 321.656 490.25 322.429C489.344 325.253 488.12 327.997 486.975 330.662L486.283 332.233C485.644 333.672 484.845 335.058 484.047 336.416C484.02 336.47 483.993 336.496 483.967 336.55C484.1 336.683 484.206 336.843 484.393 336.976C492.06 340.413 492.725 328.504 496.745 323.628C522.329 318.486 533.378 274.073 541.125 243.887C528.639 242.448 508.672 242.128 495.148 242.554L495.255 242.581Z" fill="#FDF0E2"/>
<path d="M556.246 351.789C556.805 348.885 557.418 345.874 555.98 343.583C555.235 342.384 553.93 341.265 552.439 341.345C550.176 349.098 543.015 372.544 553.078 363.192C554.25 359.702 555.421 356.105 556.113 352.482L556.246 351.816V351.789Z" fill="#FDF0E2"/>
<path d="M576.106 352.535C574.483 351.603 571.607 351.469 570.303 352.748C570.25 352.801 570.17 352.828 570.116 352.881C570.01 353.281 569.904 353.681 569.797 354.027C569.052 356.558 567.96 358.663 566.922 360.714C566.363 361.833 565.804 362.926 565.298 364.071C564.872 365.057 564.339 365.963 563.807 366.869C563.727 367.029 563.647 367.189 563.541 367.348C563.727 367.695 563.967 368.014 564.366 368.281C570.809 371.158 575.015 363.911 578.795 358.796C578.716 356.158 578.103 353.734 576.106 352.562V352.535Z" fill="#FDF0E2"/>
<path d="M266.223 244.366C268.646 243.78 271.175 243.194 273.438 243.14C280.2 242.981 286.749 242.901 292.925 243.487C300.246 244.206 307.301 244.499 314.782 244.792C316.486 244.872 317.923 244.952 319.334 245.032C321.997 245.192 324.552 245.325 327.135 245.298C326.815 243.14 326.283 241.009 325.378 238.984C320.319 227.874 310.629 216.365 298.809 207.413C285.364 197.262 270.376 200.752 256.16 205.201C241.171 209.89 218.862 216.018 198.496 215.139L196.978 215.086C188.512 214.739 179.78 214.366 171.661 210.956C167.241 209.091 163.754 205.921 160.373 202.83C159.601 202.137 158.829 201.418 158.057 200.752C155.767 198.754 153.398 196.809 151.028 194.891C147.514 192.04 143.867 189.083 140.566 185.912C139.368 184.766 137.957 183.727 136.492 182.635L5.96334 172.005C5.96334 172.005 -1.2513 211.249 0.186305 226.249C1.62391 241.249 7.32108 247.696 7.32108 247.696L97.2512 247.004C98.3161 248.069 99.4342 249.108 100.499 250.094C104.333 253.691 108.06 257.448 112.027 260.884C119.827 267.572 129.251 273.513 139.687 274.605C139.687 274.739 139.687 274.898 139.714 275.032C139.767 275.564 139.767 276.071 139.714 276.577C139.634 277.802 139.874 278.522 139.927 279.561C139.927 279.561 139.927 279.614 139.927 279.641C139.82 280.014 139.74 280.36 139.634 280.733C136.892 284.516 133.591 287.9 131.594 292.216C129.624 296.506 129.837 301.221 132.526 305.138C135.215 309.108 140.965 312.198 141.045 317.527C143.787 315.502 145.837 310.573 147.008 307.456C148.233 304.232 148.952 301.275 148.446 297.811C147.887 294.161 145.81 291.23 143.947 288.166C143.734 287.82 143.574 287.5 143.388 287.154C142.642 288.087 141.977 289.072 141.444 290.165C138.995 295.067 139.501 300.662 140.859 305.804C140.912 305.99 140.619 306.07 140.566 305.884C138.702 300.502 136.759 294.108 138.702 288.46C139.527 286.062 141.018 283.85 143.042 282.305C143.441 281.985 143.893 281.719 144.346 281.453C145.331 279.907 146.236 278.362 146.289 276.417C146.289 276.151 146.236 275.884 146.236 275.618C153.557 277.083 160.799 279.667 167.215 283.397C171.474 285.902 174.562 289.285 177.171 293.042C177.704 300.049 171.714 307.402 173.151 314.436C173.764 317.473 176.506 320.271 178.396 322.615C179.993 324.587 182.815 328.69 185.238 329.489C186.25 326.425 187.874 324.8 190.136 322.535C192.479 320.164 194.156 317.287 195.567 314.276C198.709 307.509 194.21 300.582 189.151 296.319C186.995 294.507 184.652 293.015 182.256 291.657C182.922 293.575 183.614 295.467 184.359 297.358C186.942 303.939 188.113 310.546 185.93 317.42C185.877 317.58 185.637 317.5 185.69 317.34C186.702 313.45 186.063 309.507 184.972 305.697C183.987 302.287 182.815 298.93 181.218 295.76C179.807 292.935 178.263 290.191 177.118 287.341C175.947 285.982 174.695 284.703 173.311 283.504C165.91 277.03 156.512 273.993 148.047 269.25C143.947 266.959 140.22 263.069 136.679 259.952C132.819 256.542 129.278 252.838 125.631 249.188C124.805 248.362 123.953 247.59 123.101 246.79L256.506 245.778C257.597 245.645 258.742 245.538 260.02 245.458C261.883 245.352 264.093 244.846 266.223 244.339V244.366ZM292.126 218.976C294.336 221.613 295.268 224.277 296.253 227.128C296.492 227.821 296.732 228.54 296.998 229.26C297.291 230.032 296.892 230.911 296.12 231.205C295.933 231.258 295.774 231.311 295.587 231.311C294.975 231.311 294.416 230.938 294.176 230.325C293.883 229.579 293.644 228.833 293.404 228.114C292.473 225.45 291.674 223.132 289.81 220.92C289.278 220.281 289.358 219.322 289.997 218.789C290.636 218.256 291.567 218.336 292.126 218.976ZM31.7337 233.336C31.4675 233.496 31.2013 233.576 30.9084 233.576C30.4292 233.576 29.95 233.336 29.6572 232.91C26.0099 227.368 26.3826 221.88 27.1014 216.258C27.2079 215.432 27.9534 214.846 28.7787 214.953C29.6039 215.059 30.1896 215.805 30.0831 216.631C29.2579 222.812 29.3643 226.968 32.1597 231.231C32.6123 231.924 32.4259 232.856 31.7337 233.309V233.336ZM44.0332 233.789C43.7404 234.029 43.3943 234.162 43.0482 234.162C42.6222 234.162 42.2229 233.975 41.9034 233.656C39.5607 230.965 38.2029 227.554 38.0698 224.038C38.0432 223.212 38.6821 222.519 39.5074 222.466C40.2529 222.439 41.0249 223.079 41.0782 223.904C41.1846 226.729 42.2762 229.473 44.1663 231.657C44.7254 232.297 44.6455 233.229 44.0066 233.789H44.0332ZM86.4958 208.718C86.4958 208.718 86.4159 208.718 86.3893 208.718C85.5906 208.718 84.9517 208.105 84.8985 207.306C84.4725 200.859 82.4758 196.143 78.4026 192.067C77.8169 191.48 77.8169 190.521 78.4026 189.935C78.9883 189.349 79.9467 189.349 80.5324 189.935C85.0848 194.491 87.4276 199.953 87.9068 207.093C87.96 207.919 87.3211 208.638 86.4958 208.692V208.718ZM144.213 227.235C143.388 227.235 142.722 226.569 142.695 225.743C142.642 222.199 141.311 219.215 138.516 216.365C137.93 215.778 137.93 214.819 138.516 214.233C139.101 213.647 140.06 213.647 140.646 214.233C143.973 217.617 145.624 221.373 145.704 225.663C145.704 226.489 145.065 227.181 144.213 227.181V227.235ZM152.04 227.608C151.96 228.38 151.321 228.967 150.549 228.967C150.496 228.967 150.443 228.967 150.416 228.967C149.591 228.887 148.978 228.141 149.058 227.315C149.298 224.677 148.606 221.96 146.928 218.949C146.529 218.23 146.795 217.297 147.514 216.897C148.233 216.498 149.165 216.764 149.564 217.484C151.561 221.054 152.359 224.357 152.067 227.608H152.04Z" fill="#FDF0E2"/>
<path d="M550.017 220.095C548.1 213.967 546.263 209.011 544.319 204.509C543.281 202.164 542.216 200.166 540.912 198.248C540.645 197.875 540.406 197.475 540.14 197.049C539.607 196.196 539.022 195.317 538.303 194.411H531.807C527.015 194.411 522.196 194.411 517.378 194.358C501.191 194.278 484.446 194.225 468.073 194.997C456.306 195.557 444.326 195.85 432.772 196.143C423.987 196.356 415.201 196.569 406.416 196.916C403.168 197.049 399.84 197.315 396.646 197.582C393.424 197.848 390.07 198.114 386.769 198.248L385.704 198.301C384.852 198.354 383.92 198.381 383.015 198.381C383.601 199.207 384.16 200.059 384.692 200.965C387.195 205.095 389.378 209.544 391.641 215.006C393.557 219.668 394.702 224.277 395.794 228.993C396.592 232.457 398.722 235.84 400.772 238.878L481.677 240.263C484.606 239.65 487.96 239.65 491.235 239.65C492.592 239.65 493.923 239.65 495.201 239.624C509.098 239.197 529.73 239.544 542.323 241.062C543.042 241.142 543.654 241.249 544.213 241.355L555.847 241.542C553.903 233.363 552.066 226.489 550.07 220.148L550.017 220.095ZM428.326 225.423C428.326 225.423 428.086 225.476 427.953 225.476C427.288 225.476 426.675 225.023 426.489 224.331C425.824 221.746 424.599 220.095 422.922 217.83L422.123 216.764C421.644 216.098 421.777 215.139 422.443 214.659C423.108 214.153 424.066 214.313 424.546 214.979L425.318 216.045C427.075 218.389 428.592 220.441 429.418 223.611C429.631 224.411 429.125 225.237 428.326 225.45V225.423ZM520.998 234.721C520.998 234.721 520.918 234.721 520.892 234.721C520.066 234.668 519.454 233.949 519.507 233.096C519.694 230.645 518.842 228.141 516.898 225.396C516.419 224.73 516.579 223.771 517.245 223.292C517.91 222.812 518.868 222.972 519.348 223.638C521.717 226.968 522.755 230.139 522.516 233.309C522.462 234.109 521.797 234.695 521.025 234.695L520.998 234.721Z" fill="#FDF0E2"/>
<path d="M627.248 236.48C627.328 234.988 627.301 227.901 627.248 218.949C627.168 194.171 627.195 178.106 627.408 167.689C626.742 159.376 625.677 151.09 623.707 142.991C620.353 129.377 616.386 116.055 610.795 103.427C611.195 101.482 609.624 99.004 607.814 97.0857C607.627 96.7127 607.414 96.3131 607.228 95.9401C607.947 96.2864 608.692 96.4463 609.464 96.0999C608.692 93.0893 605.977 91.0378 603.607 89.2794C603.581 89.2261 603.554 89.1728 603.527 89.1462C604.699 89.8123 606.296 90.2119 607.467 89.7057C606.482 86.2422 601.69 83.6045 599.002 81.4731C600.093 81.9793 601.344 82.1126 602.516 81.9261C602.01 79.1286 597.271 76.6775 594.343 75.4785C594.343 75.4785 594.343 75.4519 594.316 75.4253C595.301 75.665 596.393 75.5585 597.404 75.4785C597.564 72.8942 594.103 70.6829 590.695 69.3241C589.524 67.1394 586.968 65.1679 585.424 63.9423C585.903 64.0489 586.409 63.8624 586.862 63.9423C585.744 60.2656 580.26 57.8944 577.171 55.9762C578.21 56.4024 579.328 56.6689 580.233 56.2959C576.905 54.1112 573.231 52.4327 569.797 50.4078C571.368 50.3279 573.045 50.4878 574.642 50.248C573.977 47.3173 567.641 45.3724 564.26 45.2125C566.496 45.106 567.587 44.1468 565.271 41.9355C564.073 40.7899 562.289 40.1238 560.373 39.7774C558.27 37.3263 554.463 37.1931 551.587 35.7544C552.439 35.7278 553.424 35.7278 554.303 35.6745C551.907 32.2109 545.384 31.9978 541.551 31.8113C542.27 31.758 542.962 31.1719 543.547 30.8522C541.737 28.108 533.99 28.5609 531.168 28.0813C532.552 28.0547 534.017 27.8416 535.268 27.2554C533.83 23.9517 526.536 25.7901 522.356 26.3229C523.607 26.0299 524.22 25.3105 522.063 24.6444C519.241 23.7652 513.225 24.8842 509.497 26.3229C510.802 25.6569 512.08 24.751 512.16 23.3922C508.486 22.9393 504.146 25.0974 500.366 27.3353C499.967 27.3353 499.541 27.3087 499.141 27.3087C499.035 27.0956 498.902 26.8824 498.715 26.6426C497.304 24.9109 493.444 26.1364 491.661 26.9091C490.436 23.1258 484.02 25.7101 481.411 26.3229C481.065 22.5397 472.146 27.4686 470.576 28.4543C470.762 27.7883 470.656 26.8558 470.789 26.1897C466.875 26.1897 463.414 28.854 460.087 30.5058C462.429 25.0707 449.997 32.7971 448.532 33.5164C448.719 33.1701 448.799 32.4507 448.932 32.0777C445.098 32.5307 442.063 35.0084 439.215 37.6194C439.108 37.646 438.975 37.6993 438.869 37.726C438.762 36.5803 438.283 35.7011 437.271 35.3281C434.742 34.3956 430.536 38.4986 429.604 39.9373C430.562 38.392 429.79 37.7792 428.379 37.726C426.463 37.6194 423.082 41.3227 422.176 42.8147C422.762 41.8289 422.895 40.6566 422.735 39.5377C419.354 39.4577 416.666 42.6282 414.536 44.8662C415.015 43.9603 415.414 42.9479 415.255 41.9355C412.672 41.6957 408.413 46.4381 407.135 49.2089C407.241 48.7027 407.215 48.2232 407.135 47.7169C404.18 48.5429 399.308 52.779 397.284 55.9495C397.764 54.9904 398.19 54.0046 398.349 52.9655C394.889 53.3385 390.895 58.374 388.393 60.6386C387.062 61.8642 385.411 63.1697 383.973 64.635C383.681 64.8215 383.361 65.008 383.068 65.1945C383.015 63.9956 382.376 63.1697 380.619 63.3029C377.478 63.516 375.002 67.4058 373.271 69.5905C373.75 68.8978 373.564 68.3383 373.697 67.5923C371.195 67.6723 369.251 71.0026 367.654 72.6544C368.346 71.7219 368.799 70.5763 368.559 69.404C365.737 69.6438 363.075 73.3738 361.158 75.2388C361.717 73.7734 362.755 72.4679 363.181 70.9227C359.587 72.8409 357.777 77.0238 354.502 79.395C354.982 77.157 356.552 75.1055 356.233 72.7344C351.521 74.626 348.406 80.9403 345.957 86.4287C338.023 90.4783 329.93 94.2083 321.571 97.2189C320.08 97.7518 318.376 98.2846 316.592 98.7908C310.123 98.4711 303.654 97.4054 297.238 95.3273C286.456 83.0717 272 74.1198 256.373 68.8978C264.705 63.516 256.213 60.4255 250.25 61.9441C248.146 57.1484 240.027 58.1342 236.087 58.8269C239.814 48.4097 216.519 60.9583 213.671 63.8091C191.787 67.619 156.007 69.7237 147.008 93.5955C144.612 103.72 147.328 113.95 138.489 121.517C115.541 141.979 123.581 164.838 140.938 182.262C141.524 182.742 142.11 183.221 142.642 183.727C145.864 186.818 149.458 189.722 152.918 192.546C155.314 194.518 157.737 196.463 160.053 198.488C160.852 199.18 161.624 199.9 162.423 200.619C165.617 203.523 168.918 206.534 172.859 208.185C180.473 211.409 188.938 211.756 197.138 212.102L198.656 212.155C218.596 213.008 240.532 206.96 255.308 202.351C270.27 197.662 286.083 194.012 300.672 205.042C312.892 214.287 322.928 226.196 328.173 237.759C329.77 241.249 330.329 244.899 330.542 248.549C339.301 285.396 307.541 333.352 330.915 363.459C331.421 362.713 332.113 362.126 332.992 361.753C335.867 360.475 337.917 362.233 339.434 363.512C339.993 363.965 340.446 364.444 340.898 364.924C341.404 363.405 342.256 362.047 343.534 361.274C344.572 360.634 346.329 360.155 348.752 361.46C349.045 361.62 349.258 361.833 349.471 362.02C350.775 359.888 353.304 358.103 355.275 357.757C356.765 357.491 357.91 357.837 358.922 358.396C361.797 352.668 360.865 345.688 361.903 339.64C362.915 309.774 383.441 285.289 394.196 259.712C394.276 259.552 394.356 259.366 394.436 259.206C396.433 258.806 397.977 256.142 396.113 254.65C398.882 252.492 394.649 250.654 392.652 250.414C396.379 247.75 399.734 244.739 398.403 240.823C396.086 237.386 393.797 233.736 392.865 229.766C391.8 225.183 390.682 220.707 388.845 216.258C386.662 210.956 384.532 206.613 382.11 202.644C381.125 200.992 380.033 199.5 378.915 198.061C378.303 197.875 377.903 197.342 377.877 196.756C376.759 195.397 375.614 194.065 374.416 192.706C373.697 191.907 372.978 191.081 372.26 190.255C371.727 189.616 371.78 188.683 372.419 188.124C373.058 187.591 373.99 187.644 374.549 188.283C375.268 189.109 375.96 189.909 376.679 190.734C378.037 192.28 379.341 193.798 380.619 195.37C382.163 195.61 383.947 195.53 385.571 195.477L386.662 195.424C389.91 195.29 393.211 195.024 396.406 194.758C399.654 194.491 402.982 194.225 406.309 194.091C415.121 193.772 423.907 193.532 432.719 193.319C444.273 193.026 456.2 192.733 467.94 192.173C484.366 191.401 501.165 191.454 517.378 191.534C522.196 191.534 526.988 191.587 531.807 191.587H535.8C531.913 186.898 525.178 178.452 522.409 172.777C517.883 163.479 516.579 151.064 518.975 139.554C519.135 138.728 519.933 138.222 520.759 138.382C521.584 138.542 522.09 139.341 521.93 140.167C519.667 151.037 520.865 162.733 525.125 171.445C528.346 178.053 537.478 188.923 540.193 192.093C541.284 193.372 542.03 194.544 542.695 195.61C542.935 196.01 543.175 196.383 543.414 196.729C544.825 198.807 545.997 200.965 547.088 203.47C549.085 208.079 550.948 213.114 552.918 219.349C555.048 226.116 557.018 233.416 559.095 242.315C559.414 243.727 559.681 245.139 559.867 246.551C572.965 274.472 561.704 309.561 553.344 338.521C555.341 338.761 557.258 340.013 558.589 342.144C559.121 343.024 559.467 343.93 559.68 344.862C562.556 344.303 565.697 343.903 567.667 344.889C569.824 345.981 570.569 347.633 570.676 349.365C572.992 348.619 575.787 348.992 577.677 350.084C579.887 351.389 580.978 353.468 581.484 355.759C602.223 333.699 623.654 274.419 627.088 247.323C627.088 243.753 627.168 240.21 627.328 236.613L627.248 236.48ZM208.106 198.807C207.175 198.807 206.243 198.834 205.338 198.834C201.744 198.834 198.389 198.621 194.556 197.315C192.586 196.649 190.642 195.956 188.672 195.29C184.493 193.825 180.153 192.306 175.84 191.134C167.028 188.763 160.24 185.619 154.436 181.223L153.078 180.211C148.1 176.481 142.483 172.271 139.368 166.809C133.085 155.806 133.298 141.845 139.953 129.483C140.832 127.831 141.764 126.233 142.695 124.661C145.411 120.025 147.993 115.656 148.925 110.46C148.925 110.407 148.952 110.38 148.978 110.354C148.978 110.327 148.978 110.274 148.978 110.247C148.978 104.013 150.23 95.1941 156.007 88.6933C161.038 82.9918 166.975 83.0717 173.205 83.125C180.473 83.2049 187.687 84.9633 193.517 88.0805C197.644 90.2918 200.759 93.3824 203.794 96.393C204.805 97.4054 205.844 98.4178 206.935 99.4303C209.544 99.0573 212.419 98.1248 215.188 97.1656C217.211 96.4729 219.314 95.7536 221.311 95.274C226.396 94.0751 236.246 92.3167 245.085 94.3149C254.163 96.3664 264.333 99.9098 270.695 110.487C274.423 116.695 274.982 124.741 275.008 131.055C275.062 137.716 272.932 143.231 270.669 149.065C270.19 150.291 269.71 151.543 269.231 152.822C266.809 159.456 262.762 165.078 259.514 169.261C258.715 170.3 257.89 171.365 257.065 172.458C254.03 176.427 250.915 180.557 247.374 183.834C237.072 193.425 223.893 198.594 209.331 198.781H208.16L208.106 198.807Z" fill="#FDF0E2"/>
<path d="M716.273 152.875C720.506 151.943 724.606 150.531 728.892 149.865C732.938 149.225 737.065 148.906 740.898 147.387C741.058 147.334 741.165 147.6 741.005 147.653C737.651 149.119 734.083 149.838 730.489 150.637C726.549 151.49 723.008 152.929 719.334 154.58C715.794 156.179 712.413 158.177 708.898 159.882C710.389 161.401 711.561 162.68 711.747 162.813C717.072 166.463 724.978 164.944 730.09 161.747C734.482 158.977 738.156 155.193 742.469 152.289C745.478 150.264 749.045 148.852 751.92 146.668C751.095 144.616 747.661 142.405 745.93 141.099C741.83 138.035 735.893 136.304 731.075 134.892C723.674 132.707 715.767 134.252 710.735 140.273C708.18 143.337 705.997 146.774 704 150.211C703.734 150.691 703.441 151.33 703.148 151.97C697.69 153.595 692.393 155.913 687.388 158.47C687.814 157.698 688.16 156.898 688.453 156.099C687.893 155.886 687.547 155.14 688.08 154.474C688.559 153.888 688.932 153.248 689.278 152.636C689.278 152.636 689.278 152.582 689.278 152.556C689.278 152.556 689.331 152.529 689.331 152.502C690.396 150.424 690.769 148.106 690.875 145.708C691.008 142.725 691.141 139.767 691.674 136.837C692.739 131.055 695.028 125.567 698.25 120.664C698.356 120.478 698.649 120.664 698.542 120.824C695.321 126.526 693.431 132.893 693.085 139.447C692.925 142.618 693.378 146.508 692.739 149.945C695.081 148.133 697.265 146.135 698.809 143.55C703.574 135.638 699.474 124.714 700.672 116.188C698.09 116.348 694.15 120.158 692.18 121.757C688.772 124.528 685.737 127.671 683.448 131.428C679.241 138.302 682.09 143.87 684.14 150.557C683.714 151.25 683.314 151.97 682.968 152.715C682.436 153.941 682.09 155.247 681.424 156.392C680.146 158.683 678.203 160.602 676.552 162.6C676.313 162.866 676.1 163.159 675.86 163.452C674.21 163.852 672.532 164.278 670.962 165.078C667.661 166.73 664.865 169.34 661.75 171.339C658.502 173.443 655.015 175.202 651.82 177.387C651.155 177.839 650.463 178.346 649.797 178.825C643.434 179.038 636.885 179.252 630.15 179.491C630.043 193.186 630.096 208.745 630.15 218.949C630.176 228.301 630.203 235.068 630.15 236.64C630.043 238.718 629.99 240.743 629.963 242.794L749.79 244.846L749.072 175.522C749.072 175.522 719.574 176.481 675.834 177.946C678.416 175.735 680.599 173.124 681.957 169.98C684.725 163.399 692.366 160.042 699.101 158.151C700.299 157.218 701.844 156.712 703.255 156.232C707.461 154.74 711.827 153.861 716.166 152.902L716.273 152.875ZM665.93 189.216C663.241 191.694 659.807 193.132 656.639 193.132C656.399 193.132 656.16 193.132 655.92 193.132C653.285 192.946 650.995 191.747 649.291 189.669C648.759 189.029 648.865 188.07 649.504 187.537C650.143 187.005 651.101 187.111 651.634 187.751C652.805 189.189 654.323 189.989 656.133 190.122C658.636 190.282 661.617 189.109 663.88 187.005C664.492 186.445 665.451 186.472 666.01 187.084C666.569 187.697 666.542 188.656 665.93 189.216ZM715.421 198.781C716.22 198.594 717.045 199.1 717.231 199.9C718.083 203.523 719.095 207.2 720.08 210.743L717.205 211.649C716.193 207.972 715.181 204.296 714.303 200.619C714.116 199.82 714.622 198.994 715.421 198.807V198.781ZM702.376 213.94C703.121 213.567 704.027 213.86 704.399 214.606C706.849 219.482 708.073 224.384 709.271 229.127C709.777 231.098 710.256 233.096 710.868 235.094C711.108 235.894 710.656 236.72 709.857 236.959C709.724 237.013 709.564 237.013 709.431 237.013C708.792 237.013 708.18 236.586 707.993 235.92C707.381 233.869 706.875 231.844 706.369 229.819C705.171 225.024 704.027 220.494 701.737 215.912C701.364 215.166 701.657 214.26 702.403 213.887L702.376 213.94Z" fill="#FDF0E2"/>
</g>
<defs>
<clipPath id="clip0_111_831">
<rect width="752" height="384" fill="white"/>
</clipPath>
</defs>
</svg>
